<?xml version="1.0" encoding="UTF-8"?>
<svg version="1.1" viewBox="0 0 24 24" xmlns="http://www.w3.org/2000/svg" xmlns:xlink="http://www.w3.org/1999/xlink">
    <!--Generated by IJSVG (https://github.com/iconjar/IJSVG)-->
    <path d="M24,4.30078c-0.898437,0.398438 -1.80078,0.699219 -2.80078,0.800782c1,-0.601563 1.80078,-1.60156 2.19922,-2.70312c-1,0.601562 -2,1 -3.09766,1.20312c-1,-1 -2.30078,-1.60156 -3.69922,-1.60156c-2.70312,0 -4.90234,2.19922 -4.90234,4.89844c0,0.402343 0,0.800781 0.101562,1.10156c-4.10156,-0.199219 -7.69922,-2.10156 -10.1016,-5.10156c-0.5,0.703125 -0.699219,1.60156 -0.699219,2.5c0,1.70312 0.898438,3.20313 2.19922,4.10156c-0.800781,-0.101562 -1.59766,-0.300781 -2.19922,-0.601562c0,0 0,0 0,0.101562c0,2.39844 1.69922,4.39844 3.89844,4.80078c-0.398438,0.097657 -0.796875,0.199219 -1.29687,0.199219c-0.300782,0 -0.601563,0 -0.902344,-0.101562c0.601562,2 2.40234,3.40234 4.60156,3.40234c-1.69922,1.30078 -3.80078,2.09766 -6.10156,2.09766c-0.398438,0 -0.800781,0 -1.19922,-0.097657c2.19922,1.39844 4.80078,2.19922 7.5,2.19922c9.10156,0 14,-7.5 14,-14c0,-0.199219 0,-0.398437 0,-0.601562c1,-0.699219 1.80078,-1.59766 2.5,-2.59766" fill="#A43CEA"></path>
</svg>